<?xml version="1.0" encoding="UTF-8"?>
<svg xmlns="http://www.w3.org/2000/svg" version="1.1" viewBox="80 400 920 280">
  <!-- <svg xmlns="http://www.w3.org/2000/svg" version="1.1" viewBox="0 0 1080 1080"> -->
  <defs>
    <style>
      .cls-1 {
        fill: #1a2746;
      }
    </style>
  </defs>
  <g>
    <g id="Capa_1">
      <g>
        <polygon class="cls-1" points="284.3 408.5 209.3 408.5 82.3 672.5 157.3 672.5 284.3 408.5"/>
        <polygon class="cls-1" points="449 672.5 203.3 672.5 307 457 350.3 522.8 313.9 598.5 400.2 598.5 449 672.5"/>
      </g>
      <g>
        <g>
          <path class="cls-1" d="M496,468h-13.3l-25.8,58h13.8l5.2-12.4h26.9l5.2,12.4h14.1l-26-58ZM480.1,503.4l9.2-22.1,9.2,22.1h-18.4Z"/>
          <path class="cls-1" d="M572.8,500.5v25.5h-12.9v-23.5c0-3.6-.8-6.2-2.4-8-1.6-1.7-3.8-2.6-6.7-2.6s-3.9.4-5.5,1.3c-1.6.9-2.9,2.2-3.8,3.9-.9,1.7-1.4,4-1.4,6.8v22.1h-12.9v-44.6h12.3v5.3c1.3-1.4,2.8-2.6,4.6-3.6,3-1.6,6.4-2.4,10.2-2.4s6.7.7,9.5,2.1c2.8,1.4,5,3.6,6.6,6.5,1.6,2.9,2.4,6.6,2.4,11.1Z"/>
          <path class="cls-1" d="M613.1,523.9c-1.3.9-2.8,1.6-4.7,2.1s-3.8.7-5.8.7c-5.2,0-9.3-1.3-12.3-4-2.9-2.7-4.4-6.7-4.4-12v-18.3h-6.9v-9.9h6.9v-10.9h13v10.9h11v9.9h-11v18.1c0,1.9.5,3.3,1.4,4.4,1,1.1,2.3,1.6,3.9,1.6s3.9-.6,5.3-1.7l3.4,9.1Z"/>
          <path class="cls-1" d="M666.1,500.5v25.5h-12.9v-23.5c0-3.6-.8-6.2-2.4-8-1.6-1.7-3.8-2.6-6.7-2.6s-3.9.4-5.5,1.3c-1.6.9-2.9,2.2-3.8,3.9-.9,1.7-1.4,4-1.4,6.8v22.1h-12.9v-61.5h12.9v21.6c1.2-1.2,2.5-2.1,4-2.9,3-1.6,6.4-2.4,10.2-2.4s6.7.7,9.5,2.1c2.8,1.4,5,3.6,6.6,6.5,1.6,2.9,2.4,6.6,2.4,11.1Z"/>
          <path class="cls-1" d="M698.9,526.7c-4.7,0-8.9-1-12.6-3-3.7-2-6.6-4.7-8.7-8.2-2.1-3.5-3.2-7.4-3.2-11.8s1-8.4,3.2-11.9c2.1-3.5,5-6.2,8.7-8.1,3.7-2,7.9-2.9,12.6-2.9s9,1,12.7,2.9c3.7,2,6.6,4.7,8.7,8.1,2.1,3.5,3.1,7.4,3.1,11.9s-1,8.4-3.1,11.9c-2.1,3.4-5,6.1-8.7,8.1-3.7,2-7.9,3-12.7,3ZM698.9,516.1c2.2,0,4.2-.5,5.8-1.5,1.7-1,3-2.4,4.1-4.3,1-1.9,1.5-4.1,1.5-6.6s-.5-4.8-1.5-6.6c-1-1.8-2.4-3.2-4.1-4.2-1.7-1-3.6-1.5-5.8-1.5s-4.1.5-5.8,1.5c-1.7,1-3.1,2.4-4.1,4.2-1,1.8-1.5,4-1.5,6.6s.5,4.8,1.5,6.6c1,1.9,2.4,3.3,4.1,4.3,1.7,1,3.6,1.5,5.7,1.5Z"/>
          <path class="cls-1" d="M777.7,500.5v25.5h-12.9v-23.5c0-3.6-.8-6.2-2.4-8-1.6-1.7-3.8-2.6-6.7-2.6s-3.9.4-5.5,1.3c-1.6.9-2.9,2.2-3.8,3.9-.9,1.7-1.4,4-1.4,6.8v22.1h-12.9v-44.6h12.3v5.3c1.3-1.4,2.8-2.6,4.6-3.6,3-1.6,6.4-2.4,10.2-2.4s6.7.7,9.5,2.1c2.8,1.4,5,3.6,6.6,6.5,1.6,2.9,2.4,6.6,2.4,11.1Z"/>
          <path class="cls-1" d="M833.6,481.4l-20.1,47.3c-1.4,3.6-3.1,6.5-4.9,8.5-1.8,2-3.9,3.4-6.1,4.3-2.2.8-4.7,1.2-7.4,1.2s-4.5-.4-6.8-1.1c-2.3-.7-4.2-1.7-5.6-3l4.7-9.3c1,.9,2.1,1.7,3.4,2.2,1.3.5,2.6.7,3.9.7s3.2-.4,4.3-1.3c1.1-.9,2.1-2.3,2.9-4.3l.2-.4-19.2-45h13.3l12.6,30.3,12.6-30.3h12.4Z"/>
        </g>
        <g>
          <path class="cls-1" d="M559.8,600v-58h13.5v47.1h28.9v10.9h-42.4Z"/>
          <path class="cls-1" d="M653.9,555.4v44.6h-12.3v-5.3c-1.2,1.5-2.7,2.7-4.4,3.6-2.9,1.6-6,2.4-9.4,2.4s-7.1-.7-9.9-2.2c-2.9-1.4-5.1-3.7-6.7-6.6-1.6-3-2.4-6.7-2.4-11.3v-25.2h12.9v23.2c0,3.8.8,6.5,2.4,8.2,1.6,1.7,3.8,2.6,6.7,2.6s3.8-.4,5.3-1.3c1.6-.9,2.8-2.2,3.7-4s1.4-4,1.4-6.6v-22.1h12.8Z"/>
          <polygon class="cls-1" points="702.7 590.1 702.7 600 663 600 663 592.2 685.6 565.4 663.5 565.4 663.5 555.4 701.9 555.4 701.9 563.3 679.2 590.1 702.7 590.1"/>
          <path class="cls-1" d="M743.9,555.4v5.1c-1.1-1.3-2.4-2.5-3.9-3.3-2.8-1.7-6.1-2.5-10.1-2.5s-8,1-11.4,2.9c-3.4,1.9-6,4.6-8,8-1.9,3.4-2.9,7.5-2.9,12.1s1,8.8,2.9,12.1c1.9,3.4,4.6,6.1,8,8,3.4,1.9,7.2,2.9,11.4,2.9s7-.8,9.9-2.5c1.3-.8,2.5-1.7,3.5-2.9v20.8h12.9v-60.7h-12.3ZM742,584.3c-1,1.9-2.4,3.3-4.1,4.3-1.7,1-3.7,1.5-5.8,1.5s-4-.5-5.7-1.5c-1.7-1-3.1-2.4-4.1-4.3-1-1.8-1.5-4-1.5-6.6s.5-4.8,1.5-6.6c1-1.8,2.4-3.2,4.1-4.2,1.7-1,3.6-1.4,5.7-1.4s4.1.5,5.8,1.4c1.7,1,3.1,2.4,4.1,4.2,1,1.8,1.5,4,1.5,6.6s-.5,4.7-1.5,6.6Z"/>
          <path class="cls-1" d="M813.1,555.4v44.6h-12.3v-5.3c-1.2,1.5-2.7,2.7-4.4,3.6-2.9,1.6-6,2.4-9.5,2.4s-7.1-.7-9.9-2.2c-2.9-1.4-5.1-3.7-6.7-6.6-1.6-3-2.4-6.7-2.4-11.3v-25.2h12.9v23.2c0,3.8.8,6.5,2.4,8.2,1.6,1.7,3.8,2.6,6.7,2.6s3.8-.4,5.3-1.3c1.5-.9,2.8-2.2,3.7-4,.9-1.8,1.4-4,1.4-6.6v-22.1h12.9Z"/>
          <path class="cls-1" d="M831.6,549.2c-2.4,0-4.4-.7-5.9-2.1-1.5-1.4-2.2-3.1-2.2-5.1s.7-3.8,2.2-5.1c1.5-1.4,3.5-2.1,5.9-2.1s4.3.6,5.8,1.9c1.5,1.3,2.3,3,2.3,5s-.7,3.9-2.2,5.3-3.5,2.1-5.9,2.1ZM825.1,600v-44.6h12.9v44.6h-12.9Z"/>
          <path class="cls-1" d="M895.7,574.5v25.5h-12.9v-23.5c0-3.6-.8-6.2-2.4-8-1.6-1.7-3.8-2.6-6.7-2.6s-3.9.4-5.5,1.3c-1.6.9-2.9,2.2-3.8,3.9-.9,1.7-1.4,4-1.4,6.8v22.1h-12.9v-44.6h12.4v5.3c1.3-1.4,2.8-2.6,4.6-3.6,3-1.6,6.4-2.4,10.2-2.4s6.7.7,9.5,2.1c2.8,1.4,5,3.6,6.6,6.5,1.6,2.9,2.4,6.6,2.4,11.1Z"/>
          <path class="cls-1" d="M863.6,549.4h-6.6c.1-3.7,1-6.6,2.7-8.8,1.7-2.2,4-3.3,7-3.3s2.7.3,3.9.8c1.1.5,2.1,1.1,3,1.8.9.7,1.7,1.3,2.4,1.9s1.5.8,2.3.8c1.2,0,2.1-.4,2.8-1.2.7-.8,1.1-1.9,1.2-3.3h6.6c0,3.5-.9,6.4-2.7,8.6-1.7,2.2-4.1,3.3-7,3.3s-2.7-.3-3.8-.8c-1.1-.6-2.1-1.2-3-1.9-.9-.7-1.7-1.3-2.5-1.8-.8-.5-1.5-.8-2.3-.8-1.2,0-2.1.4-2.8,1.2-.7.8-1.1,1.9-1.2,3.4Z"/>
          <path class="cls-1" d="M928.5,600.7c-4.7,0-8.9-1-12.6-3-3.7-2-6.6-4.7-8.7-8.2-2.1-3.5-3.2-7.4-3.2-11.8s1-8.4,3.2-11.9c2.1-3.5,5-6.2,8.7-8.1,3.7-2,7.9-2.9,12.6-2.9s9,1,12.7,2.9c3.7,2,6.6,4.7,8.7,8.1,2.1,3.5,3.1,7.4,3.1,11.9s-1,8.4-3.1,11.9c-2.1,3.4-5,6.1-8.7,8.1-3.7,2-7.9,3-12.7,3ZM928.5,590.1c2.2,0,4.2-.5,5.8-1.5,1.7-1,3-2.4,4.1-4.3,1-1.9,1.5-4.1,1.5-6.6s-.5-4.8-1.5-6.6c-1-1.8-2.4-3.2-4.1-4.2-1.7-1-3.6-1.5-5.8-1.5s-4.1.5-5.8,1.5c-1.7,1-3.1,2.4-4.1,4.2s-1.5,4-1.5,6.6.5,4.8,1.5,6.6c1,1.9,2.4,3.3,4.1,4.3,1.7,1,3.6,1.5,5.7,1.5Z"/>
          <path class="cls-1" d="M976.6,600.7c-3.8,0-7.5-.5-10.9-1.4-3.5-.9-6.3-2.1-8.4-3.4l4.2-9.2c2.1,1.2,4.5,2.2,7.3,3,2.8.8,5.5,1.2,8.2,1.2s5.1-.4,6.3-1.1c1.2-.7,1.9-1.7,1.9-3s-.5-1.8-1.5-2.4c-1-.5-2.2-.9-3.8-1.2-1.6-.3-3.3-.6-5.3-.8-1.9-.3-3.9-.7-5.8-1.2-1.9-.5-3.7-1.2-5.3-2.1-1.6-.9-2.9-2.2-3.9-3.8-1-1.6-1.5-3.7-1.5-6.2s.8-5.3,2.5-7.5c1.7-2.2,4-3.9,7-5.1,3-1.2,6.7-1.8,11-1.8s6.2.3,9.3,1c3.1.7,5.8,1.6,7.9,2.9l-4.4,9.2c-2.1-1.2-4.2-2.1-6.4-2.6-2.2-.5-4.3-.7-6.3-.7-3,0-5.1.4-6.5,1.2-1.3.8-2,1.8-2,3s.5,1.9,1.5,2.5c1,.6,2.3,1,3.9,1.3,1.6.3,3.4.6,5.3.8,1.9.3,3.8.7,5.7,1.2,1.9.5,3.6,1.2,5.3,2.1,1.6.9,2.9,2.2,3.9,3.8,1,1.6,1.5,3.7,1.5,6.2s-.8,5.1-2.5,7.3c-1.7,2.1-4,3.8-7.2,5-3.1,1.2-6.9,1.8-11.4,1.8Z"/>
        </g>
      </g>
    </g>
  </g>
</svg>